<?xml version="1.0" encoding="UTF-8" standalone="no"?>
<!-- Uploaded to: SVG Repo, www.svgrepo.com, Transformed by: SVG Repo Mixer Tools -->

<svg
   width="600"
   height="600"
   viewBox="-5 -4 105.86645 105.86645"
   aria-hidden="true"
   role="img"
   class="iconify iconify--noto"
   preserveAspectRatio="xMidYMid"
   fill="#000000"
   version="1.1"
   id="svg188"
   sodipodi:docname="farmer.svg"
   inkscape:version="1.2.2 (b0a8486541, 2022-12-01)"
   xmlns:inkscape="http://www.inkscape.org/namespaces/inkscape"
   xmlns:sodipodi="http://sodipodi.sourceforge.net/DTD/sodipodi-0.dtd"
   xmlns="http://www.w3.org/2000/svg"
   xmlns:svg="http://www.w3.org/2000/svg">
  <defs
     id="defs192" />
  <sodipodi:namedview
     id="namedview190"
     pagecolor="#ffffff"
     bordercolor="#111111"
     borderopacity="1"
     inkscape:showpageshadow="0"
     inkscape:pageopacity="0"
     inkscape:pagecheckerboard="1"
     inkscape:deskcolor="#d1d1d1"
     showgrid="false"
     showborder="true"
     inkscape:zoom="0.74069435"
     inkscape:cx="257.86615"
     inkscape:cy="268.66683"
     inkscape:window-width="1280"
     inkscape:window-height="768"
     inkscape:window-x="295"
     inkscape:window-y="1080"
     inkscape:window-maximized="1"
     inkscape:current-layer="SVGRepo_iconCarrier" />
  <g
     id="SVGRepo_bgCarrier"
     stroke-width="0"
     transform="translate(-2.9374584,-6.12)" />
  <g
     id="SVGRepo_tracerCarrier"
     stroke-linecap="round"
     stroke-linejoin="round"
     transform="translate(-2.9374584,-6.12)" />
  <g
     id="SVGRepo_iconCarrier"
     transform="translate(-2.9374584,-6.12)">
    <path
       d="M 50.855387,41.122803 C 24.116555,40.416456 -7.3414972,11.261714 3.2946614,42.422892 9.4163396,60.3375 30.115389,69.069592 50.855387,68.803432 71.595384,69.069592 92.294434,60.347737 98.41611,42.422892 109.05226,11.261714 77.594218,40.416456 50.855387,41.122803 Z"
       fill="#7a5000"
       id="path4"
       style="stroke-width:1.02369" />
    <path
       d="m 86.756261,84.988 c -1.06464,-2.02691 -0.204739,-4.033346 3.142734,-7.432003 4.156189,-4.207373 9.632939,-15.140403 4.197136,-26.165564 0,0 -0.859901,-1.658381 -0.849664,-1.699329 l -0.767769,0.849665 c -0.153554,-0.307108 -0.317344,-0.624452 -0.501609,-0.93156 -1.177245,-0.163791 -80.861421,-0.163791 -82.0386662,0 -0.3275822,0.573268 -0.6142152,1.146535 -0.8803754,1.719802 l -1.0134557,-0.0819 C 3.0285015,63.367628 7.5839303,72.980095 12.00628,77.54576 c 2.784442,2.876574 4.279032,5.128697 3.132497,7.483188 -0.573267,1.177246 -1.463879,1.863119 -2.733257,2.119042 l -2.200937,0.429951 1.197719,1.852882 c 0.429951,0.675637 1.023692,1.238667 1.709565,1.637907 1.914304,1.115824 4.227848,1.392221 5.845281,1.433169 0.184265,0 0.450424,0.204738 0.849664,0.634689 5.200355,5.661016 9.295122,7.462712 21.92748,7.923382 l 18.2729,0.0102 c 12.775675,-0.45043 16.880679,-2.241896 22.101508,-7.923386 0.399239,-0.440187 0.665399,-0.634689 0.849664,-0.634689 1.617433,-0.04095 3.941214,-0.317344 5.84528,-1.433168 0.685874,-0.39924 1.269378,-0.962271 1.709566,-1.637907 l 1.197719,-1.852882 -2.200937,-0.429951 C 88.291799,86.902304 87.39095,86.195957 86.756261,84.988 Z"
       fill="#543930"
       id="path6"
       style="stroke-width:1.02369" />
    <radialGradient
       id="IconifyId17ecdb2904d178eab8516"
       cx="108.89"
       cy="44.966"
       r="22.987"
       gradientTransform="matrix(0.9884769,-0.26605752,0.13072546,0.48553707,-41.440674,94.337381)"
       gradientUnits="userSpaceOnUse">
      <stop
         offset=".728"
         stop-color="#6d4c41"
         stop-opacity="0"
         id="stop8" />
      <stop
         offset="1"
         stop-color="#6d4c41"
         id="stop10" />
    </radialGradient>
    <path
       d="m 51.705051,100.96783 -0.05118,-9.551045 28.878348,-2.42615 2.067858,3.613633 c 0,0 -4.074294,4.872773 -8.629723,6.398074 -3.38842,1.136298 -7.094184,1.883598 -14.188369,2.067868 z"
       fill="url(#IconifyId17ecdb2904d178eab8516)"
       id="path13"
       style="fill:url(#IconifyId17ecdb2904d178eab8516);stroke-width:1.02369" />
    <radialGradient
       id="IconifyId17ecdb2904d178eab8517"
       cx="109.017"
       cy="44.881001"
       r="22.841999"
       gradientTransform="matrix(-0.9884769,-0.26605752,-0.13072546,0.48553707,143.39713,94.499124)"
       gradientUnits="userSpaceOnUse">
      <stop
         offset=".728"
         stop-color="#6d4c41"
         stop-opacity="0"
         id="stop15" />
      <stop
         offset="1"
         stop-color="#6d4c41"
         id="stop17" />
    </radialGradient>
    <path
       d="m 50.005723,100.96783 0.05118,-9.489623 -28.694083,-2.415913 -2.057621,3.593158 c 0,0 4.043583,4.842063 8.578538,6.357127 3.367946,1.126061 7.053237,1.873361 14.096237,2.057631 z"
       fill="url(#IconifyId17ecdb2904d178eab8517)"
       id="path20"
       style="fill:url(#IconifyId17ecdb2904d178eab8517);stroke-width:1.02369" />
    <radialGradient
       id="IconifyId17ecdb2904d178eab8518"
       cx="106.37"
       cy="61.688"
       r="26.407"
       gradientTransform="matrix(-0.07636742,-1.0208256,0.85079034,-0.06367364,30.374384,182.69225)"
       gradientUnits="userSpaceOnUse">
      <stop
         offset=".725"
         stop-color="#6d4c41"
         stop-opacity="0"
         id="stop24" />
      <stop
         offset="1"
         stop-color="#6d4c41"
         id="stop26" />
    </radialGradient>
    <path
       d="m 91.352637,75.774773 c -1.648144,2.200938 -4.371164,4.688509 -4.678272,6.623287 3.050602,-16.542861 -10.267629,-14.577372 -13.02136,-22.132218 -0.552794,-1.525301 -1.06464,-3.09155 -1.126061,-4.71922 -0.05118,-1.218193 7.483187,-12.744964 8.189535,-13.778893 0.859901,-1.269378 13.236336,9.162043 13.236336,9.162043 -0.01024,0.02047 6.971335,12.05909 -2.600178,24.845001 z"
       fill="url(#IconifyId17ecdb2904d178eab8518)"
       id="path29"
       style="fill:url(#IconifyId17ecdb2904d178eab8518);stroke-width:1.02369" />
    <radialGradient
       id="IconifyId17ecdb2904d178eab8519"
       cx="90.954002"
       cy="49.198002"
       r="9.1610003"
       gradientTransform="matrix(-0.96605805,0.34406285,-0.25131636,-0.72774257,190.73878,87.352731)"
       gradientUnits="userSpaceOnUse">
      <stop
         offset=".663"
         stop-color="#6d4c41"
         id="stop31" />
      <stop
         offset="1"
         stop-color="#6d4c41"
         stop-opacity="0"
         id="stop33" />
    </radialGradient>
    <path
       d="m 80.24558,88.611869 c -7.278449,-10.59521 10.922793,-12.62212 10.922793,-12.62212 -2.385202,2.334017 -5.558647,6.24452 -4.463297,8.742328 1.300089,2.948233 5.057038,2.712784 5.057038,2.712784 0,0 -6.582339,6.019308 -11.516534,1.167008 z"
       fill="url(#IconifyId17ecdb2904d178eab8519)"
       id="path36"
       style="fill:url(#IconifyId17ecdb2904d178eab8519);stroke-width:1.02369" />
    <path
       d="m 78.331277,55.300936 h -54.95178 c -5.927176,0 -10.769239,5.159407 -10.769239,11.475586 0,6.316179 4.842063,11.475586 10.769239,11.475586 h 54.962017 c 5.927175,0 10.769238,-5.159407 10.769238,-11.475586 0,-6.316179 -4.852299,-11.475586 -10.779475,-11.475586 z"
       fill="#7a5000"
       id="path38"
       style="stroke-width:1.02369" />
    <path
       d="m 50.855387,15.714771 c -17.505131,0 -33.710174,18.713088 -33.710174,45.646421 0,26.790016 16.696415,40.026358 33.710174,40.026358 17.013759,0 33.710173,-13.236342 33.710173,-40.026358 0,-26.933333 -16.205042,-45.646421 -33.710173,-45.646421 z"
       fill="#ee9820"
       id="path40"
       style="stroke-width:1.02369" />
    <g
       fill="#404040"
       id="g46"
       transform="matrix(1.0236919,0,0,1.0236919,-1.8340348,2.2941732)">
      <ellipse
         cx="36.169998"
         cy="60.009998"
         rx="4.8400002"
         ry="5.0100002"
         id="ellipse42" />
      <ellipse
         cx="66.769997"
         cy="60.009998"
         rx="4.8400002"
         ry="5.0100002"
         id="ellipse44" />
    </g>
    <path
       d="m 59.433925,81.159393 c -3.204156,1.904066 -13.707235,1.904066 -16.91139,0 -1.842645,-1.095351 -3.716002,0.583504 -2.95847,2.252122 0.747295,1.648144 6.47997,5.456277 11.434639,5.456277 4.954668,0 10.605447,-3.808133 11.362979,-5.456277 0.767769,-1.678855 -1.085113,-3.347473 -2.927758,-2.252122 z"
       fill="#795548"
       id="path48"
       style="stroke-width:1.02369" />
    <g
       fill="#6d4c41"
       id="g54"
       transform="matrix(1.0236919,0,0,1.0236919,-1.8340348,2.2941732)">
      <path
         d="m 43.36,51.13 c -0.91,-1.21 -3.02,-2.96 -7.1,-2.96 -4.08,0 -6.19,1.75 -7.1,2.96 -0.4,0.53 -0.3,1.15 -0.02,1.52 0.26,0.35 1.02,0.67 1.87,0.38 0.85,-0.29 2.49,-1.14 5.26,-1.16 2.76,0.02 4.41,0.87 5.26,1.16 0.85,0.29 1.61,-0.03 1.87,-0.38 0.26,-0.37 0.36,-0.99 -0.04,-1.52 z"
         id="path50" />
      <path
         d="m 73.79,51.13 c -0.91,-1.21 -3.02,-2.96 -7.1,-2.96 -4.08,0 -6.19,1.75 -7.1,2.96 -0.4,0.53 -0.3,1.15 -0.02,1.52 0.26,0.35 1.02,0.67 1.87,0.38 0.85,-0.29 2.49,-1.14 5.26,-1.16 2.76,0.02 4.41,0.87 5.26,1.16 0.85,0.29 1.61,-0.03 1.87,-0.38 0.26,-0.37 0.36,-0.99 -0.04,-1.52 z"
         id="path52" />
    </g>
    <path
       d="m 54.735179,73.021042 c -0.102369,-0.04095 -0.214975,-0.07166 -0.327581,-0.0819 h -7.104422 c -0.112606,0.01024 -0.214975,0.04095 -0.327581,0.0819 -0.644926,0.26616 -1.003218,0.93156 -0.696111,1.637907 0.307108,0.706348 1.719802,2.702547 4.575903,2.702547 2.8561,0 4.268795,-1.996199 4.575902,-2.702547 0.307108,-0.706347 -0.05118,-1.371747 -0.69611,-1.637907 z"
       fill="#7a5000"
       id="path56"
       style="stroke-width:1.02369" />
    <g
       id="g72"
       transform="matrix(1.0236919,0,0,1.0236919,-1.8340348,2.2941732)">
      <radialGradient
         id="IconifyId17ecdb2904d178eab8520"
         cx="106.533"
         cy="61.498001"
         r="26.233"
         gradientTransform="matrix(0.0746,-0.9972,-0.8311,-0.0622,71.472,176.564)"
         gradientUnits="userSpaceOnUse">
        <stop
           offset=".725"
           stop-color="#6d4c41"
           stop-opacity="0"
           id="stop58" />
        <stop
           offset="1"
           stop-color="#6d4c41"
           id="stop60" />
      </radialGradient>
      <path
         d="m 12.16,71.94 c 1.61,2.13 4.25,4.55 4.54,6.43 -2.96,-16.05 9.97,-14.15 12.64,-21.48 0.54,-1.48 1.03,-3 1.1,-4.58 0.05,-1.18 -7.27,-12.37 -7.94,-13.37 -0.83,-1.23 -12.85,8.9 -12.85,8.9 0,0 -6.25,12.54 2.51,24.1 z"
         fill="url(#IconifyId17ecdb2904d178eab8520)"
         id="path63"
         style="fill:url(#IconifyId17ecdb2904d178eab8520)" />
      <radialGradient
         id="IconifyId17ecdb2904d178eab8521"
         cx="91.193001"
         cy="49.087002"
         r="9.1029997"
         gradientTransform="matrix(0.9437,0.3361,0.2455,-0.7109,-85.133,83.043)"
         gradientUnits="userSpaceOnUse">
        <stop
           offset=".663"
           stop-color="#6d4c41"
           id="stop65" />
        <stop
           offset="1"
           stop-color="#6d4c41"
           stop-opacity="0"
           id="stop67" />
      </radialGradient>
      <path
         d="M 22.94,84.4 C 30,74.12 12.34,72.15 12.34,72.15 c 2.32,2.27 5.4,6.07 4.33,8.48 -1.26,2.86 -4.91,2.63 -4.91,2.63 0,0 6.39,5.85 11.18,1.14 z"
         fill="url(#IconifyId17ecdb2904d178eab8521)"
         id="path70"
         style="fill:url(#IconifyId17ecdb2904d178eab8521)" />
    </g>
    <path
       d="m 91.17861,31.837918 c -0.163791,-0.245686 -0.348056,-0.511846 -0.542557,-0.767769 -0.358292,0.06142 -0.757532,0.13308 -1.146535,0.194502 -0.389003,-0.737058 -0.737058,-1.320563 -0.992981,-1.699329 -0.06142,-0.08189 -4.944432,0.839428 -12.202407,1.781224 H 23.328312 C 17.175924,30.517356 13.07092,29.698402 12.743338,29.565322 12.5386,30.179537 12.385046,30.773279 12.27244,31.346546 h -1.044166 c -1.4536422,4.105005 -0.583504,5.036564 0.03071,6.766603 -2.5387568,2.149753 -5.9783614,6.828025 -3.5317378,12.673306 2.4670988,5.916939 8.2202468,6.531154 8.2202468,6.531154 -0.624452,10.799949 2.784442,16.041252 2.784442,16.041252 0,0 4.227847,-18.549297 3.838844,-21.384924 0,0 7.800532,-1.545774 16.655467,-6.613049 5.988598,-3.429368 10.073128,-7.44224 16.798784,-8.957304 10.236918,-2.303307 12.519751,5.108222 12.519751,5.108222 0,0 9.46915,-1.822171 12.335487,11.332269 1.177246,5.41533 1.678855,14.45453 2.323781,19.951755 -0.05119,-0.481135 3.5215,-6.428785 4.145952,-12.468567 0.174028,-1.678855 2.119042,-5.159407 3.511263,-8.517116 0.583504,1.09535 1.248904,2.415912 1.443406,3.081312 0,0 1.126061,-4.565666 1.207956,-4.88301 2.252122,-8.988015 -0.56303,-15.488458 -2.334017,-18.170531 z"
       fill="#543930"
       id="path74"
       style="stroke-width:1.02369" />
    <g
       id="g90"
       transform="matrix(1.0236919,0,0,1.0236919,-1.8340348,2.2941732)">
      <radialGradient
         id="IconifyId17ecdb2904d178eab8522"
         cx="26.719999"
         cy="83.07"
         r="16.886"
         gradientTransform="matrix(0.9907,0.1371,0.1915,-1.4003,-15.657,157.665)"
         gradientUnits="userSpaceOnUse">
        <stop
           offset=".598"
           stop-color="#6d4c41"
           stop-opacity="0"
           id="stop76" />
        <stop
           offset="1"
           stop-color="#6d4c41"
           id="stop78" />
      </radialGradient>
      <path
         d="M 12.56,35.13 C 10.19,37.25 7,41.97 9.35,47.81 c 1.77,4.41 8.09,6.33 8.09,6.33 0,0.02 1.26,0.4 1.91,0.4 l 1.48,-22.02 c -3.03,0 -5.94,0.91 -7.82,2.23 0.02,0.03 -0.46,0.35 -0.45,0.38 z"
         fill="url(#IconifyId17ecdb2904d178eab8522)"
         id="path81"
         style="fill:url(#IconifyId17ecdb2904d178eab8522)" />
      <radialGradient
         id="IconifyId17ecdb2904d178eab8523"
         cx="76.736"
         cy="80.422997"
         r="24.990999"
         gradientTransform="matrix(0.3076,0.9515,0.706,-0.2282,-3.648,-7.087)"
         gradientUnits="userSpaceOnUse">
        <stop
           offset=".699"
           stop-color="#6d4c41"
           stop-opacity="0"
           id="stop83" />
        <stop
           offset="1"
           stop-color="#6d4c41"
           id="stop85" />
      </radialGradient>
      <path
         d="m 86.75,57.5 c 0.16,-1.55 4.34,-3.6 6.14,-10.26 0.19,-0.71 0.35,-1.43 0.5,-2.15 C 94.85,37 92.23,29.57 90.6,27.11 88.34,23.7 78.84,30.48 80.46,33.19 c 5.06,8.47 4.9,16.19 6.29,24.31 z"
         fill="url(#IconifyId17ecdb2904d178eab8523)"
         id="path88"
         style="fill:url(#IconifyId17ecdb2904d178eab8523)" />
    </g>
    <g
       id="g170"
       transform="matrix(1.0236919,0,0,1.0236919,-1.8340348,2.2941732)">
      <linearGradient
         id="IconifyId17ecdb2904d178eab8530"
         gradientUnits="userSpaceOnUse"
         x1="51.471001"
         y1="120.426"
         x2="51.471001"
         y2="96.640999"
         gradientTransform="matrix(1,0,0,-1,0,128)">
        <stop
           offset=".003"
           stop-color="#fff59d"
           id="stop148" />
        <stop
           offset=".553"
           stop-color="#fee565"
           id="stop150" />
        <stop
           offset=".996"
           stop-color="#fdd835"
           id="stop152" />
      </linearGradient>
      <path
         d="M 77.49,29.04 C 72.67,17.05 67.93,7.59 61.86,6.86 60.24,6.67 56,6.13 51.71,6.12 c -4.45,0 -8.95,0.54 -10.62,0.74 -6.07,0.73 -10.81,10.19 -15.64,22.17 -2.62,6.5 54.66,6.5 52.04,0.01 z"
         fill="url(#IconifyId17ecdb2904d178eab8530)"
         id="path155"
         style="fill:url(#IconifyId17ecdb2904d178eab8530)" />
      <linearGradient
         id="IconifyId17ecdb2904d178eab8531"
         gradientUnits="userSpaceOnUse"
         x1="51.470001"
         y1="101.453"
         x2="51.470001"
         y2="72.425003"
         gradientTransform="matrix(1,0,0,-1,0,128)">
        <stop
           offset=".003"
           stop-color="#fff59d"
           id="stop157" />
        <stop
           offset=".553"
           stop-color="#fee565"
           id="stop159" />
        <stop
           offset=".996"
           stop-color="#fdd835"
           id="stop161" />
      </linearGradient>
      <path
         d="m 91.57,24.72 c -9.43,1.71 -25.18,3.7 -39.53,3.76 H 50.9 C 36.55,28.42 20.8,26.43 11.37,24.72 3.23,23.24 2.94,28.56 2.94,28.56 c 0,0 2.58,-3.19 7.11,1.23 7.03,6.86 18.48,17.75 40.77,17.84 0.22,0 0.43,-0.01 0.65,-0.01 0.22,0 0.43,0.01 0.65,0.01 22.3,-0.1 33.74,-10.98 40.77,-17.84 4.53,-4.42 7.11,-1.23 7.11,-1.23 0,0 -0.29,-5.32 -8.43,-3.84 z"
         fill="url(#IconifyId17ecdb2904d178eab8531)"
         id="path164"
         style="fill:url(#IconifyId17ecdb2904d178eab8531)" />
      <g
         id="g168">
        <path
           d="m 51.47,20.37 c -15.18,0 -25.05,6.55 -25.05,6.55 0,0 14.37,1.47 25.05,1.47 10.68,0 25.05,-1.47 25.05,-1.47 0,0 -9.87,-6.55 -25.05,-6.55 z"
           fill="#78909c"
           id="path166" />
      </g>
    </g>
  </g>
</svg>
